<?xml version="1.0" encoding="utf-8"?>
<!-- Generator: Adobe Illustrator 16.2.0, SVG Export Plug-In . SVG Version: 6.00 Build 0)  -->
<!DOCTYPE svg PUBLIC "-//W3C//DTD SVG 1.1//EN" "http://www.w3.org/Graphics/SVG/1.1/DTD/svg11.dtd">
<svg version="1.1" id="Layer_1" xmlns="http://www.w3.org/2000/svg" xmlns:xlink="http://www.w3.org/1999/xlink" x="0px" y="0px"
	 width="390.116px" height="480.232px" viewBox="0 0 390.116 480.232" enable-background="new 0 0 390.116 480.232"
	 xml:space="preserve">
<path fill="#FFFFFF" stroke="#000000" stroke-width="10" stroke-miterlimit="10" d="M372,450.097c0,7.034-4.979,12.136-11.99,12.136
	H33.143c-7.011,0-13.143-5.102-13.143-12.136V30.829c0-7.035,6.132-12.596,13.143-12.596H360.01c7.012,0,11.99,5.561,11.99,12.596
	V450.097z"/>
<g>
	<circle fill="none" stroke="#000000" stroke-width="10" stroke-miterlimit="10" cx="86.222" cy="135.944" r="33.721"/>
	
		<line fill="none" stroke="#000000" stroke-width="10" stroke-miterlimit="10" x1="86.222" y1="135.944" x2="194.396" y2="244.119"/>
	<circle stroke="#000000" stroke-width="10" stroke-miterlimit="10" cx="85.861" cy="135.561" r="8.616"/>
	<circle fill="none" stroke="#000000" stroke-width="10" stroke-miterlimit="10" cx="302.676" cy="135.944" r="33.721"/>
	
		<line fill="none" stroke="#000000" stroke-width="10" stroke-miterlimit="10" x1="302.676" y1="135.944" x2="194.501" y2="244.119"/>
	<circle stroke="#000000" stroke-width="10" stroke-miterlimit="10" cx="303.036" cy="135.561" r="8.616"/>
	<circle fill="none" stroke="#000000" stroke-width="10" stroke-miterlimit="10" cx="194.449" cy="397.818" r="33.721"/>
	<line fill="none" stroke="#000000" stroke-width="10" stroke-miterlimit="10" x1="195" y1="398.232" x2="195" y2="245.232"/>
	<circle stroke="#000000" stroke-width="10" stroke-miterlimit="10" cx="194.433" cy="398.344" r="8.616"/>
	<circle stroke="#000000" stroke-width="10" stroke-miterlimit="10" cx="194.396" cy="244.119" r="18.198"/>
</g>
<g>
	<rect x="33.222" y="30.232" fill="none" width="320.348" height="45.93"/>
	<path stroke="#000000" stroke-width="2" stroke-miterlimit="10" d="M74.776,40.541h-29.51v33.248h-7.363V36.888
		c0-0.51,0.094-0.991,0.283-1.444c0.188-0.453,0.448-0.85,0.779-1.189c0.33-0.34,0.722-0.604,1.175-0.793
		c0.453-0.188,0.944-0.283,1.473-0.283h33.163V40.541z M71.491,57.193H48.212v-7.42h23.279V57.193z"/>
	<path stroke="#000000" stroke-width="2" stroke-miterlimit="10" d="M118.021,73.789H84.434c-0.529,0-1.02-0.094-1.473-0.283
		c-0.453-0.188-0.845-0.448-1.175-0.779c-0.331-0.33-0.59-0.722-0.779-1.175c-0.189-0.453-0.283-0.944-0.283-1.473V33.178h7.363
		v33.248h29.935V73.789z"/>
	<path stroke="#000000" stroke-width="2" stroke-miterlimit="10" d="M161.068,70.079c0,0.529-0.095,1.02-0.283,1.473
		c-0.189,0.453-0.453,0.845-0.793,1.175c-0.34,0.331-0.736,0.59-1.189,0.779c-0.453,0.189-0.935,0.283-1.444,0.283h-16.596
		c-1.567,0-3.153-0.17-4.758-0.51c-1.605-0.34-3.158-0.864-4.659-1.572s-2.913-1.609-4.234-2.705
		c-1.322-1.095-2.478-2.393-3.469-3.894s-1.77-3.219-2.336-5.154c-0.566-1.935-0.85-4.092-0.85-6.471V33.178h7.363v20.306
		c0,2.077,0.288,3.833,0.864,5.268c0.576,1.435,1.307,2.634,2.195,3.597c0.887,0.963,1.859,1.718,2.917,2.266
		c1.057,0.548,2.063,0.954,3.016,1.218c0.953,0.265,1.793,0.43,2.521,0.496c0.727,0.066,1.204,0.099,1.43,0.099h12.942V33.178h7.363
		V70.079z"/>
	<path stroke="#000000" stroke-width="2" stroke-miterlimit="10" d="M188.171,47.678l12.404-14.5h10.054L193.155,53.54l17.36,20.249
		h-9.997l-12.348-14.387L175.88,73.789h-10.025l17.332-20.249l-17.389-20.362h9.969L188.171,47.678z"/>
	<path stroke="#000000" stroke-width="2" stroke-miterlimit="10" d="M233.823,47.678l12.404-14.5h10.054L238.808,53.54l17.36,20.249
		h-9.997l-12.348-14.387l-12.291,14.387h-10.025l17.332-20.249L211.45,33.178h9.969L233.823,47.678z"/>
	<path stroke="#000000" stroke-width="2" stroke-miterlimit="10" d="M302.5,57.363c0,2.474-0.425,4.749-1.274,6.825
		c-0.85,2.077-2.029,3.871-3.54,5.381c-1.511,1.511-3.299,2.686-5.367,3.526c-2.066,0.84-4.318,1.26-6.754,1.26h-9.969
		c-2.436,0-4.691-0.42-6.769-1.26s-3.87-2.015-5.381-3.526c-1.511-1.51-2.695-3.304-3.554-5.381
		c-0.859-2.077-1.289-4.352-1.289-6.825v-7.76c0-2.454,0.43-4.725,1.289-6.811c0.858-2.086,2.043-3.88,3.554-5.381
		s3.304-2.676,5.381-3.526s4.333-1.274,6.769-1.274h9.969c2.436,0,4.688,0.425,6.754,1.274c2.068,0.85,3.856,2.025,5.367,3.526
		s2.69,3.295,3.54,5.381c0.85,2.086,1.274,4.357,1.274,6.811V57.363z M295.137,49.604c0-1.454-0.231-2.771-0.693-3.951
		c-0.463-1.18-1.114-2.19-1.955-3.03c-0.84-0.84-1.85-1.491-3.029-1.954c-1.181-0.462-2.479-0.694-3.895-0.694h-9.969
		c-1.435,0-2.742,0.231-3.922,0.694c-1.181,0.463-2.195,1.114-3.045,1.954c-0.85,0.84-1.506,1.851-1.969,3.03
		c-0.462,1.18-0.693,2.497-0.693,3.951v7.76c0,1.454,0.231,2.771,0.693,3.951c0.463,1.18,1.119,2.19,1.969,3.03
		c0.85,0.84,1.864,1.492,3.045,1.954c1.18,0.463,2.487,0.694,3.922,0.694h9.912c1.435,0,2.742-0.231,3.922-0.694
		c1.181-0.462,2.195-1.114,3.045-1.954c0.85-0.84,1.506-1.85,1.969-3.03c0.462-1.18,0.693-2.497,0.693-3.951V49.604z"/>
	<path stroke="#000000" stroke-width="2" stroke-miterlimit="10" d="M350.361,46.828c0,1.681-0.208,3.182-0.623,4.503
		c-0.415,1.322-0.977,2.488-1.686,3.498c-0.707,1.01-1.524,1.874-2.449,2.591c-0.925,0.718-1.893,1.308-2.902,1.77
		c-1.011,0.463-2.03,0.798-3.059,1.005c-1.029,0.208-1.997,0.312-2.903,0.312l15.378,13.282h-11.385l-15.35-13.282h-5.296v-7.363
		h16.652c0.925-0.075,1.771-0.269,2.534-0.581c0.766-0.312,1.426-0.731,1.982-1.26c0.558-0.528,0.987-1.166,1.289-1.912
		c0.302-0.746,0.453-1.6,0.453-2.563v-4.645c0-0.415-0.052-0.731-0.156-0.949c-0.104-0.217-0.235-0.377-0.396-0.481
		c-0.16-0.104-0.33-0.165-0.51-0.184c-0.179-0.019-0.344-0.028-0.495-0.028h-24.299v33.248h-7.363V36.888
		c0-0.51,0.095-0.991,0.283-1.444s0.448-0.85,0.778-1.189c0.331-0.34,0.723-0.604,1.176-0.793c0.453-0.188,0.944-0.283,1.473-0.283
		h27.952c1.643,0,3.03,0.297,4.163,0.892s2.053,1.341,2.762,2.237c0.707,0.897,1.217,1.865,1.529,2.903
		c0.311,1.039,0.467,2.011,0.467,2.917V46.828z"/>
</g>
<path fill="none" stroke="#000000" stroke-width="3" stroke-miterlimit="10" d="M358.5,440.524c0,5.831-3.397,10.208-9.916,10.208
	H44.743c-6.516,0-12.243-4.377-12.243-10.208V92.912c0-5.833,5.727-10.18,12.243-10.18h303.841c6.519,0,9.916,4.346,9.916,10.18
	V440.524z"/>
<g>
</g>
<g>
</g>
<g>
</g>
<g>
</g>
<g>
</g>
<g>
</g>
<g>
</g>
<g>
</g>
<g>
</g>
<g>
</g>
<g>
</g>
<g>
</g>
<g>
</g>
<g>
</g>
<g>
</g>
</svg>
